<svg xmlns="http://www.w3.org/2000/svg" width="1024" height="1024" viewBox="0 0 61.44 61.44" fill="none" xmlns:v="https://vecta.io/nano"><circle cx="30.72" cy="30.72" fill="#fa9770" r="30.72"/><path d="M22.694 15.796c0 1.912-1.456 3.46-3.733 3.46-2.188 0-3.645-1.548-3.6-3.46-.045-2.005 1.411-3.508 3.643-3.508s3.646 1.503 3.69 3.508zm-7.15 28.47V21.99h6.923v22.275h-6.923zm12.472-15.167l-.183-7.106h6.013l.32 3.052h.137c.911-1.413 3.188-3.552 6.878-3.552 4.554 0 7.971 3.007 7.971 9.564V44.27h-6.923V31.924c0-2.871-1.001-4.829-3.507-4.829-1.914 0-3.052 1.321-3.507 2.596-.183.456-.273 1.093-.273 1.732v12.846h-6.923v-15.17z" fill-rule="evenodd" fill="#fff"/></svg>